<svg width="30" height="30" viewBox="0 0 30 30" fill="none" xmlns="http://www.w3.org/2000/svg">
<mask id="mask0_5_34667" style="mask-type:alpha" maskUnits="userSpaceOnUse" x="3" y="3" width="24" height="24">
<path fill-rule="evenodd" clip-rule="evenodd" d="M12.5 16.25H5C4.3125 16.25 3.75 15.6875 3.75 15V5C3.75 4.3125 4.3125 3.75 5 3.75H12.5C13.1875 3.75 13.75 4.3125 13.75 5V15C13.75 15.6875 13.1875 16.25 12.5 16.25ZM12.5 26.25H5C4.3125 26.25 3.75 25.6875 3.75 25V20C3.75 19.3125 4.3125 18.75 5 18.75H12.5C13.1875 18.75 13.75 19.3125 13.75 20V25C13.75 25.6875 13.1875 26.25 12.5 26.25ZM17.5 26.25H25C25.6875 26.25 26.25 25.6875 26.25 25V15C26.25 14.3125 25.6875 13.75 25 13.75H17.5C16.8125 13.75 16.25 14.3125 16.25 15V25C16.25 25.6875 16.8125 26.25 17.5 26.25ZM16.25 10V5C16.25 4.3125 16.8125 3.75 17.5 3.75H25C25.6875 3.75 26.25 4.3125 26.25 5V10C26.25 10.6875 25.6875 11.25 25 11.25H17.5C16.8125 11.25 16.25 10.6875 16.25 10Z" fill="black"/>
</mask>
<g mask="url(#mask0_5_34667)">
<rect width="30" height="30" fill="#858C94"/>
</g>
</svg>
