<svg width="30" height="30" viewBox="0 0 30 30" fill="none" xmlns="http://www.w3.org/2000/svg">
<g id="Action / accessible">
<mask id="mask0_6_272" style="mask-type:alpha" maskUnits="userSpaceOnUse" x="6" y="2" width="18" height="26">
<g id="Icon Mask">
<path id="Round" fill-rule="evenodd" clip-rule="evenodd" d="M15 2.5C13.6193 2.5 12.5 3.61929 12.5 5C12.5 6.38071 13.6193 7.5 15 7.5C16.3807 7.5 17.5 6.38071 17.5 5C17.5 3.61929 16.3807 2.5 15 2.5ZM23.75 14.875C23.75 14.2625 23.3 13.7625 22.7 13.6625C21.1375 13.4 19.6625 12.5625 18.6625 11.4625L17.05 9.675C16.8375 9.4375 16.575 9.25 16.2875 9.1125C16.2812 9.1125 16.2781 9.10938 16.275 9.10625C16.2719 9.10312 16.2687 9.1 16.2625 9.1H16.25C15.7875 8.8375 15.275 8.7125 14.6875 8.7875C13.4125 8.9375 12.5 10.0875 12.5 11.375V18.75C12.5 20.125 13.625 21.25 15 21.25H21.25V26.25C21.25 26.9375 21.8125 27.5 22.5 27.5C23.1875 27.5 23.75 26.9375 23.75 26.25V20.625C23.75 19.25 22.625 18.125 21.25 18.125H17.5V13.8125C18.75 14.85 20.5 15.7375 22.25 16.0875C23.025 16.25 23.75 15.6625 23.75 14.875ZM12.5 25C14.1375 25 15.525 23.95 16.0375 22.5H18.625C18.05 25.35 15.525 27.5 12.5 27.5C9.05 27.5 6.25 24.7 6.25 21.25C6.25 18.225 8.4 15.7 11.25 15.125V17.7125C9.8 18.2375 8.75 19.6125 8.75 21.25C8.75 23.325 10.425 25 12.5 25Z" fill="black"/>
</g>
</mask>
<g mask="url(#mask0_6_272)">
<rect id="Color Fill" width="30" height="30" fill="#858C94"/>
</g>
</g>
</svg>
